<svg xmlns="http://www.w3.org/2000/svg" viewBox="0 0 1100 820" font-family="Arial, sans-serif">

  <!-- Background -->
  <rect width="1100" height="820" fill="#F8F9FA" rx="8"/>

  <!-- Title -->
  <text x="550" y="38" text-anchor="middle" font-size="20" font-weight="bold" fill="#1a1a2e">AdventureWorks Active Directory Structure</text>
  <text x="550" y="58" text-anchor="middle" font-size="11" fill="#666">Domain: adventureworks.local · 290 Users · 4 Divisions · 16 Departments</text>
  <line x1="80" y1="68" x2="1020" y2="68" stroke="#ccc" stroke-width="1"/>

  <!-- ===== DOMAIN ROOT ===== -->
  <rect x="380" y="82" width="340" height="52" rx="6" fill="#1a1a2e" stroke="#1a1a2e" stroke-width="1.5"/>
  <text x="550" y="103" text-anchor="middle" font-size="13" font-weight="bold" fill="#fff">adventureworks.local</text>
  <text x="550" y="122" text-anchor="middle" font-size="10" fill="#aaa">Forest Root Domain · Windows Server 2022</text>

  <!-- Lines from domain to divisions -->
  <line x1="550" y1="134" x2="160" y2="195" stroke="#999" stroke-width="1.2"/>
  <line x1="550" y1="134" x2="390" y2="195" stroke="#999" stroke-width="1.2"/>
  <line x1="550" y1="134" x2="710" y2="195" stroke="#999" stroke-width="1.2"/>
  <line x1="550" y1="134" x2="940" y2="195" stroke="#999" stroke-width="1.2"/>

  <!-- ===== MANUFACTURING DIVISION ===== -->
  <rect x="80" y="195" width="160" height="44" rx="5" fill="#5B8C5A" stroke="#3D6B3C" stroke-width="1.2"/>
  <text x="160" y="213" text-anchor="middle" font-size="11" font-weight="bold" fill="#fff">Manufacturing</text>
  <text x="160" y="228" text-anchor="middle" font-size="9" fill="#D5EAD4">OU=Manufacturing</text>

  <!-- Manufacturing sub-OUs -->
  <line x1="160" y1="239" x2="100" y2="275" stroke="#5B8C5A" stroke-width="1"/>
  <line x1="160" y1="239" x2="160" y2="275" stroke="#5B8C5A" stroke-width="1"/>
  <line x1="160" y1="239" x2="220" y2="275" stroke="#5B8C5A" stroke-width="1"/>

  <rect x="62" y="275" width="76" height="32" rx="4" fill="#EDF7ED" stroke="#5B8C5A" stroke-width="1"/>
  <text x="100" y="289" text-anchor="middle" font-size="9" font-weight="bold" fill="#2E6B2E">Users</text>
  <text x="100" y="301" text-anchor="middle" font-size="8" fill="#555">207 accounts</text>

  <rect x="122" y="275" width="76" height="32" rx="4" fill="#EDF7ED" stroke="#5B8C5A" stroke-width="1"/>
  <text x="160" y="289" text-anchor="middle" font-size="9" font-weight="bold" fill="#2E6B2E">Groups</text>
  <text x="160" y="301" text-anchor="middle" font-size="8" fill="#555">Manufacturing-Users</text>

  <rect x="182" y="275" width="76" height="32" rx="4" fill="#EDF7ED" stroke="#5B8C5A" stroke-width="1"/>
  <text x="220" y="289" text-anchor="middle" font-size="9" font-weight="bold" fill="#2E6B2E">Computers</text>
  <text x="220" y="301" text-anchor="middle" font-size="8" fill="#555">No VMs</text>

  <!-- Manufacturing departments -->
  <text x="160" y="328" text-anchor="middle" font-size="9" font-weight="bold" fill="#3D6B3C">Departments:</text>
  <text x="160" y="342" text-anchor="middle" font-size="8" fill="#555">Production</text>
  <text x="160" y="354" text-anchor="middle" font-size="8" fill="#555">Quality Assurance</text>
  <text x="160" y="366" text-anchor="middle" font-size="8" fill="#555">Engineering</text>
  <text x="160" y="378" text-anchor="middle" font-size="8" fill="#555">Shipping</text>
  <text x="160" y="390" text-anchor="middle" font-size="8" fill="#555">Tool Design</text>
  <text x="160" y="402" text-anchor="middle" font-size="8" fill="#555">Production Control</text>
  <text x="160" y="414" text-anchor="middle" font-size="8" fill="#555">Document Control</text>

  <!-- ===== SALES DIVISION ===== -->
  <rect x="310" y="195" width="160" height="44" rx="5" fill="#E8922A" stroke="#B8721A" stroke-width="1.2"/>
  <text x="390" y="213" text-anchor="middle" font-size="11" font-weight="bold" fill="#fff">Sales</text>
  <text x="390" y="228" text-anchor="middle" font-size="9" fill="#FEE4C0">OU=Sales</text>

  <!-- Sales sub-OUs -->
  <line x1="390" y1="239" x2="330" y2="275" stroke="#E8922A" stroke-width="1"/>
  <line x1="390" y1="239" x2="390" y2="275" stroke="#E8922A" stroke-width="1"/>
  <line x1="390" y1="239" x2="450" y2="275" stroke="#E8922A" stroke-width="1"/>

  <rect x="292" y="275" width="76" height="32" rx="4" fill="#FEF4E8" stroke="#E8922A" stroke-width="1"/>
  <text x="330" y="289" text-anchor="middle" font-size="9" font-weight="bold" fill="#A05C10">Users</text>
  <text x="330" y="301" text-anchor="middle" font-size="8" fill="#555">27 accounts</text>

  <rect x="352" y="275" width="76" height="32" rx="4" fill="#FEF4E8" stroke="#E8922A" stroke-width="1"/>
  <text x="390" y="289" text-anchor="middle" font-size="9" font-weight="bold" fill="#A05C10">Groups</text>
  <text x="390" y="301" text-anchor="middle" font-size="8" fill="#555">Sales-Users</text>

  <rect x="412" y="275" width="76" height="32" rx="4" fill="#FEF4E8" stroke="#E8922A" stroke-width="1"/>
  <text x="450" y="289" text-anchor="middle" font-size="9" font-weight="bold" fill="#A05C10">Computers</text>
  <text x="450" y="301" text-anchor="middle" font-size="8" fill="#555">CLIENT-SALES</text>

  <!-- Sales departments -->
  <text x="390" y="328" text-anchor="middle" font-size="9" font-weight="bold" fill="#A05C10">Departments:</text>
  <text x="390" y="342" text-anchor="middle" font-size="8" fill="#555">Sales</text>
  <text x="390" y="354" text-anchor="middle" font-size="8" fill="#555">Marketing</text>
  <text x="390" y="366" text-anchor="middle" font-size="8" fill="#555">Purchasing</text>

  <!-- GPO badge Sales -->
  <rect x="322" y="390" width="136" height="28" rx="4" fill="#FEE4C0" stroke="#E8922A" stroke-width="1"/>
  <text x="390" y="403" text-anchor="middle" font-size="8" font-weight="bold" fill="#7D3C10">GPO: USB Restrictions</text>
  <text x="390" y="414" text-anchor="middle" font-size="8" fill="#A05C10">All removable storage denied</text>

  <!-- ===== CORPORATE DIVISION ===== -->
  <rect x="540" y="195" width="160" height="44" rx="5" fill="#D4AC0D" stroke="#A08008" stroke-width="1.2"/>
  <text x="620" y="213" text-anchor="middle" font-size="11" font-weight="bold" fill="#fff">Corporate</text>
  <text x="620" y="228" text-anchor="middle" font-size="9" fill="#FEF5CC">OU=Corporate</text>

  <!-- Corporate sub-OUs -->
  <line x1="620" y1="239" x2="560" y2="275" stroke="#D4AC0D" stroke-width="1"/>
  <line x1="620" y1="239" x2="620" y2="275" stroke="#D4AC0D" stroke-width="1"/>
  <line x1="620" y1="239" x2="680" y2="275" stroke="#D4AC0D" stroke-width="1"/>

  <rect x="522" y="275" width="76" height="32" rx="4" fill="#FEFAE8" stroke="#D4AC0D" stroke-width="1"/>
  <text x="560" y="289" text-anchor="middle" font-size="9" font-weight="bold" fill="#7D6608">Users</text>
  <text x="560" y="301" text-anchor="middle" font-size="8" fill="#555">23 accounts</text>

  <rect x="582" y="275" width="76" height="32" rx="4" fill="#FEFAE8" stroke="#D4AC0D" stroke-width="1"/>
  <text x="620" y="289" text-anchor="middle" font-size="9" font-weight="bold" fill="#7D6608">Groups</text>
  <text x="620" y="301" text-anchor="middle" font-size="8" fill="#555">Finance · HR · Exec</text>

  <rect x="642" y="275" width="76" height="32" rx="4" fill="#FEFAE8" stroke="#D4AC0D" stroke-width="1"/>
  <text x="680" y="289" text-anchor="middle" font-size="9" font-weight="bold" fill="#7D6608">Computers</text>
  <text x="680" y="301" text-anchor="middle" font-size="8" fill="#555">CLIENT-FIN</text>

  <!-- Corporate departments -->
  <text x="620" y="328" text-anchor="middle" font-size="9" font-weight="bold" fill="#7D6608">Departments:</text>
  <text x="620" y="342" text-anchor="middle" font-size="8" fill="#555">Finance</text>
  <text x="620" y="354" text-anchor="middle" font-size="8" fill="#555">Human Resources</text>
  <text x="620" y="366" text-anchor="middle" font-size="8" fill="#555">Executive</text>
  <text x="620" y="378" text-anchor="middle" font-size="8" fill="#555">Information Services</text>

  <!-- GPO badge Corporate -->
  <rect x="552" y="392" width="136" height="28" rx="4" fill="#FEF5CC" stroke="#D4AC0D" stroke-width="1"/>
  <text x="620" y="405" text-anchor="middle" font-size="8" font-weight="bold" fill="#7D6608">GPO: Screen Lock</text>
  <text x="620" y="416" text-anchor="middle" font-size="8" fill="#A08008">10-min inactivity timeout</text>

  <!-- ===== IT-INFRASTRUCTURE DIVISION ===== -->
  <rect x="860" y="195" width="160" height="44" rx="5" fill="#8E44AD" stroke="#6C3483" stroke-width="1.2"/>
  <text x="940" y="213" text-anchor="middle" font-size="11" font-weight="bold" fill="#fff">IT-Infrastructure</text>
  <text x="940" y="228" text-anchor="middle" font-size="9" fill="#E8D5F5">OU=IT-Infrastructure</text>

  <!-- IT sub-OUs -->
  <line x1="940" y1="239" x2="880" y2="275" stroke="#8E44AD" stroke-width="1"/>
  <line x1="940" y1="239" x2="940" y2="275" stroke="#8E44AD" stroke-width="1"/>
  <line x1="940" y1="239" x2="1000" y2="275" stroke="#8E44AD" stroke-width="1"/>

  <rect x="842" y="275" width="76" height="32" rx="4" fill="#F3EEF8" stroke="#8E44AD" stroke-width="1"/>
  <text x="880" y="289" text-anchor="middle" font-size="9" font-weight="bold" fill="#5B2C6F">Users</text>
  <text x="880" y="301" text-anchor="middle" font-size="8" fill="#555">32 accounts</text>

  <rect x="902" y="275" width="76" height="32" rx="4" fill="#F3EEF8" stroke="#8E44AD" stroke-width="1"/>
  <text x="940" y="289" text-anchor="middle" font-size="9" font-weight="bold" fill="#5B2C6F">Groups</text>
  <text x="940" y="301" text-anchor="middle" font-size="8" fill="#555">IT-Users · IT-Admins</text>

  <rect x="962" y="275" width="76" height="32" rx="4" fill="#F3EEF8" stroke="#8E44AD" stroke-width="1"/>
  <text x="1000" y="289" text-anchor="middle" font-size="9" font-weight="bold" fill="#5B2C6F">Computers</text>
  <text x="1000" y="301" text-anchor="middle" font-size="8" fill="#555">No VMs</text>

  <!-- IT departments -->
  <text x="940" y="328" text-anchor="middle" font-size="9" font-weight="bold" fill="#5B2C6F">Departments:</text>
  <text x="940" y="342" text-anchor="middle" font-size="8" fill="#555">Information Services</text>
  <text x="940" y="354" text-anchor="middle" font-size="8" fill="#555">IT Administration</text>

  <!-- ===== FILE SHARE PERMISSIONS MATRIX ===== -->
  <rect x="80" y="455" width="940" height="220" rx="6" fill="#fff" stroke="#ccc" stroke-width="1.2"/>
  <text x="100" y="476" font-size="12" font-weight="bold" fill="#1a1a2e">File Share Permissions Matrix</text>
  <text x="100" y="491" font-size="9" fill="#888">F = Full Control · M = Modify · R = Read · — = No Access</text>

  <!-- Table header -->
  <rect x="100" y="498" width="900" height="22" rx="3" fill="#1a1a2e"/>
  <text x="230" y="513" text-anchor="middle" font-size="9" font-weight="bold" fill="#fff">Share Path</text>
  <text x="380" y="513" text-anchor="middle" font-size="9" font-weight="bold" fill="#fff">Manufacturing-Users</text>
  <text x="490" y="513" text-anchor="middle" font-size="9" font-weight="bold" fill="#fff">Sales-Users</text>
  <text x="590" y="513" text-anchor="middle" font-size="9" font-weight="bold" fill="#fff">Finance-Users</text>
  <text x="690" y="513" text-anchor="middle" font-size="9" font-weight="bold" fill="#fff">HR-Users</text>
  <text x="790" y="513" text-anchor="middle" font-size="9" font-weight="bold" fill="#fff">IT-Users</text>
  <text x="900" y="513" text-anchor="middle" font-size="9" font-weight="bold" fill="#fff">Executive-Users</text>

  <!-- Table rows -->
  <rect x="100" y="520" width="900" height="20" fill="#F8F9FA"/>
  <text x="230" y="534" text-anchor="middle" font-size="9" fill="#333">\\FS01\Manufacturing</text>
  <text x="380" y="534" text-anchor="middle" font-size="9" fill="#2E6B2E" font-weight="bold">F</text>
  <text x="490" y="534" text-anchor="middle" font-size="9" fill="#999">—</text>
  <text x="590" y="534" text-anchor="middle" font-size="9" fill="#999">—</text>
  <text x="690" y="534" text-anchor="middle" font-size="9" fill="#999">—</text>
  <text x="790" y="534" text-anchor="middle" font-size="9" fill="#2E6B2E" font-weight="bold">F</text>
  <text x="900" y="534" text-anchor="middle" font-size="9" fill="#4A90D9" font-weight="bold">R</text>

  <rect x="100" y="540" width="900" height="20" fill="#fff"/>
  <text x="230" y="554" text-anchor="middle" font-size="9" fill="#333">\\FS01\Sales</text>
  <text x="380" y="554" text-anchor="middle" font-size="9" fill="#999">—</text>
  <text x="490" y="554" text-anchor="middle" font-size="9" fill="#2E6B2E" font-weight="bold">F</text>
  <text x="590" y="554" text-anchor="middle" font-size="9" fill="#999">—</text>
  <text x="690" y="554" text-anchor="middle" font-size="9" fill="#999">—</text>
  <text x="790" y="554" text-anchor="middle" font-size="9" fill="#2E6B2E" font-weight="bold">F</text>
  <text x="900" y="554" text-anchor="middle" font-size="9" fill="#4A90D9" font-weight="bold">R</text>

  <rect x="100" y="560" width="900" height="20" fill="#F8F9FA"/>
  <text x="230" y="574" text-anchor="middle" font-size="9" fill="#333">\\FS01\Corporate\Finance</text>
  <text x="380" y="574" text-anchor="middle" font-size="9" fill="#999">—</text>
  <text x="490" y="574" text-anchor="middle" font-size="9" fill="#999">—</text>
  <text x="590" y="574" text-anchor="middle" font-size="9" fill="#2E6B2E" font-weight="bold">F</text>
  <text x="690" y="574" text-anchor="middle" font-size="9" fill="#999">—</text>
  <text x="790" y="574" text-anchor="middle" font-size="9" fill="#2E6B2E" font-weight="bold">F</text>
  <text x="900" y="574" text-anchor="middle" font-size="9" fill="#2E6B2E" font-weight="bold">F</text>

  <rect x="100" y="580" width="900" height="20" fill="#fff"/>
  <text x="230" y="594" text-anchor="middle" font-size="9" fill="#333">\\FS01\Corporate\HR</text>
  <text x="380" y="594" text-anchor="middle" font-size="9" fill="#999">—</text>
  <text x="490" y="594" text-anchor="middle" font-size="9" fill="#999">—</text>
  <text x="590" y="594" text-anchor="middle" font-size="9" fill="#999">—</text>
  <text x="690" y="594" text-anchor="middle" font-size="9" fill="#2E6B2E" font-weight="bold">F</text>
  <text x="790" y="594" text-anchor="middle" font-size="9" fill="#2E6B2E" font-weight="bold">F</text>
  <text x="900" y="594" text-anchor="middle" font-size="9" fill="#2E6B2E" font-weight="bold">F</text>

  <rect x="100" y="600" width="900" height="20" fill="#F8F9FA"/>
  <text x="230" y="614" text-anchor="middle" font-size="9" fill="#333">\\FS01\IT-Infrastructure</text>
  <text x="380" y="614" text-anchor="middle" font-size="9" fill="#999">—</text>
  <text x="490" y="614" text-anchor="middle" font-size="9" fill="#999">—</text>
  <text x="590" y="614" text-anchor="middle" font-size="9" fill="#999">—</text>
  <text x="690" y="614" text-anchor="middle" font-size="9" fill="#999">—</text>
  <text x="790" y="614" text-anchor="middle" font-size="9" fill="#2E6B2E" font-weight="bold">F</text>
  <text x="900" y="614" text-anchor="middle" font-size="9" fill="#4A90D9" font-weight="bold">R</text>

  <rect x="100" y="620" width="900" height="20" fill="#fff"/>
  <text x="230" y="634" text-anchor="middle" font-size="9" fill="#333">\\FS01\CompanyWide</text>
  <text x="380" y="634" text-anchor="middle" font-size="9" fill="#E8922A" font-weight="bold">M</text>
  <text x="490" y="634" text-anchor="middle" font-size="9" fill="#E8922A" font-weight="bold">M</text>
  <text x="590" y="634" text-anchor="middle" font-size="9" fill="#E8922A" font-weight="bold">M</text>
  <text x="690" y="634" text-anchor="middle" font-size="9" fill="#E8922A" font-weight="bold">M</text>
  <text x="790" y="634" text-anchor="middle" font-size="9" fill="#2E6B2E" font-weight="bold">F</text>
  <text x="900" y="634" text-anchor="middle" font-size="9" fill="#E8922A" font-weight="bold">M</text>

  <!-- Table border lines -->
  <line x1="100" y1="520" x2="1000" y2="520" stroke="#eee" stroke-width="1"/>
  <line x1="100" y1="540" x2="1000" y2="540" stroke="#eee" stroke-width="1"/>
  <line x1="100" y1="560" x2="1000" y2="560" stroke="#eee" stroke-width="1"/>
  <line x1="100" y1="580" x2="1000" y2="580" stroke="#eee" stroke-width="1"/>
  <line x1="100" y1="600" x2="1000" y2="600" stroke="#eee" stroke-width="1"/>
  <line x1="100" y1="620" x2="1000" y2="620" stroke="#eee" stroke-width="1"/>
  <line x1="100" y1="640" x2="1000" y2="640" stroke="#eee" stroke-width="1"/>
  <rect x="100" y="498" width="900" height="142" fill="none" stroke="#ccc" stroke-width="1"/>

  <!-- Footer -->
  <line x1="80" y1="690" x2="1020" y2="690" stroke="#ccc" stroke-width="1"/>
  <text x="550" y="706" text-anchor="middle" font-size="9" fill="#999">AdventureWorks Infrastructure Lab · Active Directory · adventureworks.local · Windows Server 2022</text>

</svg>
